#!OML:ASF G:\JayActor3\Patient Classification 1\Patient 1\Session 6\male.ASF
:FULLY-SPECIFIED
:DEGREES
1156
root -32.9892 16.3818 -16.3444 -547.854 -71.3709 187.914
lowerback -1.01578 -1.30472 4.26659
upperback 0.358361 -1.82564 1.08179
thorax 0.840257 -0.899423 -1.30951
lowerneck 2.21227 -3.62663 0.506922
upperneck -9.44822 -4.63185 4.29523
head -3.3352 -2.54492 1.4819
rclavicle -3.62797e-015 1.68967e-014
rhumerus -29.9799 22.3033 -91.6069
rradius 84.7407
rwrist -6.68386
rhand -54.6396 -1.79173
rfingers 7.12502
rthumb -27.0354 -29.8766
lclavicle -3.62797e-015 1.68967e-014
lhumerus -34.3048 4.26236 79.6276
lradius 77.8677
lwrist 72.4484
lhand -35.5004 7.15788
lfingers 7.12502
lthumb -8.62765 36.9616
rfemur -12.4733 -4.48222 28.27
rtibia 36.4922
rfoot -28.2976 -17.4565
rtoes 1.42192
lfemur -8.70498 7.54363 -17.6104
ltibia 29.2594
lfoot -19.2634 -0.792305
ltoes 0.780722
1157
root -32.9868 16.3817 -16.3445 -547.858 -71.3422 187.915
lowerback -0.983058 -1.30951 4.27844
upperback 0.349365 -1.83006 1.08049
thorax 0.812024 -0.902225 -1.3165
lowerneck 2.20803 -3.6355 0.503804
upperneck -9.41013 -4.64547 4.27549
head -3.32124 -2.54972 1.4752
rclavicle 7.14473e-014 4.17448e-015
rhumerus -29.9848 22.3366 -91.6022
rradius 84.7319
rwrist -6.64636
rhand -54.6232 -1.76671
rfingers 7.12502
rthumb -27.0197 -29.854
lclavicle 7.14473e-014 4.17448e-015
lhumerus -34.2766 4.25996 79.6319
lradius 77.8823
lwrist 72.4569
lhand -35.505 7.16083
lfingers 7.12502
lthumb -8.63217 36.9644
rfemur -12.4759 -4.49472 28.276
rtibia 36.4932
rfoot -28.2805 -17.4241
rtoes 1.44001
lfemur -8.70375 7.53754 -17.6038
ltibia 29.2629
lfoot -19.2592 -0.770758
ltoes 0.812586
1158
root -32.9846 16.3817 -16.3449 -547.838 -71.3136 187.892
lowerback -0.960327 -1.31249 4.27947
upperback 0.344949 -1.83256 1.07777
thorax 0.794479 -0.903839 -1.31922
lowerneck 2.19898 -3.64349 0.502326
upperneck -9.36959 -4.65798 4.25598
head -3.30559 -2.55399 1.46805
rclavicle 5.37584e-014 -6.36111e-015
rhumerus -29.9791 22.3673 -91.5911
rradius 84.7243
rwrist -6.61607
rhand -54.6121 -1.74503
rfingers 7.12502
rthumb -27.0091 -29.834
lclavicle 5.37584e-014 -6.36111e-015
lhumerus -34.237 4.25069 79.6384
lradius 77.9
lwrist 72.4667
lhand -35.515 7.15539
lfingers 7.12502
lthumb -8.64182 36.9585
rfemur -12.4816 -4.4948 28.2766
rtibia 36.4989
rfoot -28.2716 -17.3987
rtoes 1.46357
lfemur -8.69951 7.53813 -17.6042
ltibia 29.2584
lfoot -19.2513 -0.748973
ltoes 0.833785
1159
root -32.9825 16.382 -16.3457 -547.807 -71.283 187.861
lowerback -0.94559 -1.31351 4.27219
upperback 0.342135 -1.83282 1.07523
thorax 0.783444 -0.904219 -1.31732
lowerneck 2.18536 -3.65689 0.494434
upperneck -9.32529 -4.67756 4.24563
head -3.28727 -2.56182 1.46499
rclavicle 3.50633e-014 -3.97569e-015
rhumerus -29.9693 22.3949 -91.5767
rradius 84.7201
rwrist -6.59731
rhand -54.6047 -1.73173
rfingers 7.12502
rthumb -27.002 -29.8218
lclavicle 3.50633e-014 -3.97569e-015
lhumerus -34.189 4.23228 79.646
lradius 77.9178
lwrist 72.4747
lhand -35.5299 7.1541
lfingers 7.12502
lthumb -8.65619 36.9566
rfemur -12.4857 -4.4753 28.279
rtibia 36.5091
rfoot -28.2966 -17.3529
rtoes 1.58432
lfemur -8.69423 7.54207 -17.6059
ltibia 29.2462
lfoot -19.2377 -0.728523
ltoes 0.858494
1160
root -32.9806 16.3823 -16.3468 -547.769 -71.2518 187.823
lowerback -0.940198 -1.31304 4.25983
upperback 0.344886 -1.83174 1.07297
thorax 0.783602 -0.903667 -1.31263
lowerneck 2.16072 -3.67138 0.484452
upperneck -9.27631 -4.69879 4.23941
head -3.26509 -2.57045 1.46323
rclavicle 7.16295e-015 -7.15625e-015
rhumerus -29.9489 22.4195 -91.5565
rradius 84.7187
rwrist -6.5906
rhand -54.6023 -1.72912
rfingers 7.12502
rthumb -26.9997 -29.8196
lclavicle 7.16295e-015 -7.15625e-015
lhumerus -34.1262 4.20428 79.6565
lradius 77.9338
lwrist 72.4817
lhand -35.5511 7.14619
lfingers 7.12502
lthumb -8.67662 36.9479
rfemur -12.4952 -4.44377 28.2819
rtibia 36.5198
rfoot -28.313 -17.3335
rtoes 1.66785
lfemur -8.68818 7.54762 -17.609
ltibia 29.2302
lfoot -19.223 -0.708139
ltoes 0.868233
